# Rhino

mtllib desk.mtl
usemtl diffuse_0
v 11.758209228515625 3.8333332538604736 24.049524307250977
v 9.8415346145629883 3.8333332538604736 24.049528121948242
v 11.758209228515625 3.8333332538604736 23.716192245483398
v 10.008200645446777 3.8333332538604736 23.716194152832031
v 10.008191108703613 3.8333332538604736 16.046043395996094
v 10.008195877075195 3.8333332538604736 19.881118774414063
v 11.758199691772461 3.8333332538604736 16.046041488647461
v 11.758199691772461 3.8333332538604736 15.712708473205566
v 9.8415241241455078 3.8333332538604736 15.712711334228516
v 9.8415288925170898 3.8333332538604736 19.881118774414063
v 11.758209228515625 -0.1666666716337204 24.049524307250977
v 9.8415346145629883 -0.1666666716337204 24.049528121948242
v 11.758209228515625 -0.1666666716337204 23.716192245483398
v 10.008200645446777 -0.1666666716337204 23.716194152832031
v 10.008191108703613 -0.1666666716337204 16.046043395996094
v 10.008195877075195 -0.1666666716337204 19.881118774414063
v 11.758199691772461 -0.1666666716337204 16.046041488647461
v 11.758199691772461 -0.1666666716337204 15.712708473205566
v 9.8415241241455078 -0.1666666716337204 15.712711334228516
v 9.8415288925170898 -0.1666666716337204 19.881118774414063
v 11.758209228515625 -0.1666666716337204 24.049524307250977
v 11.758209228515625 3.8333332538604736 24.049524307250977
v 11.758209228515625 -0.1666666716337204 23.716192245483398
v 11.758209228515625 3.8333332538604736 23.716192245483398
v 11.758209228515625 1.1666666269302368 23.716192245483398
v 11.758209228515625 2.5 23.716192245483398
v 11.758209228515625 2.5 24.049524307250977
v 11.758209228515625 1.1666666269302368 24.049524307250977
v 11.758209228515625 -0.1666666716337204 23.716192245483398
v 11.758209228515625 3.8333332538604736 23.716192245483398
v 10.008200645446777 -0.1666666716337204 23.716194152832031
v 10.008200645446777 3.8333332538604736 23.716194152832031
v 11.758209228515625 2.5 23.716192245483398
v 11.758209228515625 1.1666666269302368 23.716192245483398
v 10.008200645446777 1.8333333730697632 23.716194152832031
v 10.008200645446777 -0.1666666716337204 23.716194152832031
v 10.008200645446777 3.8333332538604736 23.716194152832031
v 10.008191108703613 -0.1666666716337204 16.046043395996094
v 10.008191108703613 3.8333332538604736 16.046043395996094
v 10.008195877075195 3.8333332538604736 19.881118774414063
v 10.008195877075195 -0.1666666716337204 19.881118774414063
v 10.008200645446777 1.8333333730697632 23.716194152832031
v 10.008191108703613 1.8333333730697632 16.046043395996094
v 10.008191108703613 -0.1666666716337204 16.046043395996094
v 10.008191108703613 3.8333332538604736 16.046043395996094
v 11.758199691772461 -0.1666666716337204 16.046041488647461
v 11.758199691772461 3.8333332538604736 16.046041488647461
v 10.008191108703613 1.8333333730697632 16.046043395996094
v 11.758199691772461 1.1666666269302368 16.046041488647461
v 11.758199691772461 2.5 16.046041488647461
v 11.758199691772461 -0.1666666716337204 16.046041488647461
v 11.758199691772461 3.8333332538604736 16.046041488647461
v 11.758199691772461 -0.1666666716337204 15.712708473205566
v 11.758199691772461 3.8333332538604736 15.712708473205566
v 11.758199691772461 2.5 16.046041488647461
v 11.758199691772461 1.1666666269302368 16.046041488647461
v 11.758199691772461 1.1666666269302368 15.712708473205566
v 11.758199691772461 2.5 15.712708473205566
v 11.758199691772461 -0.1666666716337204 15.712708473205566
v 11.758199691772461 3.8333332538604736 15.712708473205566
v 9.8415241241455078 -0.1666666716337204 15.712711334228516
v 9.8415241241455078 3.8333332538604736 15.712711334228516
v 11.758199691772461 2.5 15.712708473205566
v 11.758199691772461 1.1666666269302368 15.712708473205566
v 9.8415241241455078 1.8333333730697632 15.712711334228516
v 9.8415241241455078 -0.1666666716337204 15.712711334228516
v 9.8415241241455078 3.8333332538604736 15.712711334228516
v 9.8415346145629883 -0.1666666716337204 24.049528121948242
v 9.8415346145629883 3.8333332538604736 24.049528121948242
v 9.8415288925170898 3.8333332538604736 19.881118774414063
v 9.8415288925170898 -0.1666666716337204 19.881118774414063
v 9.8415241241455078 1.8333333730697632 15.712711334228516
v 9.8415346145629883 1.8333333730697632 24.049528121948242
v 9.8415346145629883 -0.1666666716337204 24.049528121948242
v 9.8415346145629883 3.8333332538604736 24.049528121948242
v 11.758209228515625 -0.1666666716337204 24.049524307250977
v 11.758209228515625 3.8333332538604736 24.049524307250977
v 11.758209228515625 1.1666666269302368 24.049524307250977
v 11.758209228515625 2.5 24.049524307250977
v 9.8415346145629883 1.8333333730697632 24.049528121948242
vt 6.0821213722229004 1.1684111356735229
vt 6.0821237564086914 6.3071584008866921E-06
vt 5.8789219856262207 1.1684111356735229
vt 5.8789234161376953 0.10160592198371887
vt 1.2031992673873901 0.10160010308027267
vt 3.5410611629486084 0.10160301625728607
vt 1.2031981945037842 1.168405294418335
vt 0.99999833106994629 1.168405294418335
vt 1.0000001192092896 -8.7800145820438047E-08
vt 3.5410611629486084 2.8189990644023055E-06
vt -5.0821213722229004 1.1684111356735229
vt -5.0821237564086914 6.3071584008866921E-06
vt -4.8789219856262207 1.1684111356735229
vt -4.8789234161376953 0.10160592198371887
vt -0.20319932699203491 0.10160010308027267
vt -2.5410611629486084 0.10160301625728607
vt -0.20319816470146179 1.168405294418335
vt 1.6428112985522603E-06 1.168405294418335
vt -1.0126824179224059E-07 -8.7800145820438047E-08
vt -2.5410611629486084 2.8189990644023055E-06
vt -5.0821213722229004 -3.0279152518630781E-09
vt -5.0821213722229004 2.4384000301361084
vt -4.8789219856262207 -3.0279152518630781E-09
vt -4.8789219856262207 2.4384000301361084
vt -4.8789219856262207 0.81279999017715454
vt -4.8789219856262207 1.6255999803543091
vt -5.0821213722229004 1.6255999803543091
vt -5.0821213722229004 0.81279999017715454
vt -3.0279152518630781E-09 1.1684111356735229
vt 2.4384000301361084 1.1684111356735229
vt -3.0279152518630781E-09 0.10160592198371887
vt 2.4384000301361084 0.10160592198371887
vt 1.6255999803543091 1.1684111356735229
vt 0.81279999017715454 1.1684111356735229
vt 1.2192000150680542 0.10160592198371887
vt -4.8789234161376953 -3.0279152518630781E-09
vt -4.8789234161376953 2.4384000301361084
vt -0.20319932699203491 -3.0279152518630781E-09
vt -0.20319932699203491 2.4384000301361084
vt -2.5410611629486084 2.4384000301361084
vt -2.5410611629486084 -3.0279152518630781E-09
vt -4.8789234161376953 1.2192000150680542
vt -0.20319932699203491 1.2192000150680542
vt 1 0.10160010308027267
vt -1.4383999109268188 0.10160010308027267
vt 1 1.168405294418335
vt -1.4383999109268188 1.168405294418335
vt -0.21920002996921539 0.10160010308027267
vt 0.18720002472400665 1.168405294418335
vt -0.62559998035430908 1.168405294418335
vt -0.20319816470146179 -3.0279152518630781E-09
vt -0.20319816470146179 2.4384000301361084
vt 1.6428112985522603E-06 -3.0279152518630781E-09
vt 1.6428112985522603E-06 2.4384000301361084
vt -0.20319816470146179 1.6255999803543091
vt -0.20319816470146179 0.81279999017715454
vt 1.6428112985522603E-06 0.81279999017715454
vt 1.6428112985522603E-06 1.6255999803543091
vt -3.0279152518630781E-09 1.168405294418335
vt 2.4384000301361084 1.168405294418335
vt -3.0279152518630781E-09 -8.7800145820438047E-08
vt 2.4384000301361084 -8.7800145820438047E-08
vt 1.6255999803543091 1.168405294418335
vt 0.81279999017715454 1.168405294418335
vt 1.2192000150680542 -8.7800145820438047E-08
vt 1.0000001192092896 -3.0279152518630781E-09
vt 1.0000001192092896 2.4384000301361084
vt 6.0821237564086914 -3.0279152518630781E-09
vt 6.0821237564086914 2.4384000301361084
vt 3.5410611629486084 2.4384000301361084
vt 3.5410611629486084 -3.0279152518630781E-09
vt 1.0000001192092896 1.2192000150680542
vt 6.0821237564086914 1.2192000150680542
vt 1 6.3071584008866921E-06
vt -1.4383999109268188 6.3071584008866921E-06
vt 1 1.1684111356735229
vt -1.4383999109268188 1.1684111356735229
vt 0.18720002472400665 1.1684111356735229
vt -0.62559998035430908 1.1684111356735229
vt -0.21920002996921539 6.3071584008866921E-06
vn 0 1 0
vn 0 1 0
vn 0 1 0
vn 0 1 0
vn 0 1 0
vn 0 1 0
vn 0 1 0
vn 0 1 0
vn 0 1 0
vn 0 1 0
vn 0 -1 0
vn 0 -1 0
vn 0 -1 0
vn 0 -1 0
vn 0 -1 0
vn 0 -1 0
vn 0 -1 0
vn 0 -1 0
vn 0 -1 0
vn 0 -1 0
vn 1 0 -1.1973061191383749E-06
vn 1 0 -1.1973061191383749E-06
vn 1 0 -1.1973061191383749E-06
vn 1 0 -1.1973061191383749E-06
vn 1 0 -1.1973061191383749E-06
vn 1 0 -1.1973061191383749E-06
vn 1 0 -1.1973061191383749E-06
vn 1 0 -1.1973061191383749E-06
vn -1.1972920219704974E-06 0 -1
vn -1.1972920219704974E-06 0 -1
vn -1.1972920219704974E-06 0 -1
vn -1.1972920219704974E-06 0 -1
vn -1.1972920219704974E-06 0 -1
vn -1.1972920219704974E-06 0 -1
vn -1.1972920219704974E-06 0 -1
vn 1 0 -1.1972913398494711E-06
vn 1 0 -1.1972913398494711E-06
vn 1 0 -1.1972913398494711E-06
vn 1 0 -1.1972913398494711E-06
vn 1 0 -1.1972913398494711E-06
vn 1 0 -1.1972913398494711E-06
vn 1 0 -1.1972913398494711E-06
vn 1 0 -1.1972913398494711E-06
vn 1.1972874744969886E-06 0 1
vn 1.1972874744969886E-06 0 1
vn 1.1972874744969886E-06 0 1
vn 1.1972874744969886E-06 0 1
vn 1.1972874744969886E-06 0 1
vn 1.1972874744969886E-06 0 1
vn 1.1972874744969886E-06 0 1
vn 1 0 -1.1972977063123835E-06
vn 1 0 -1.1972977063123835E-06
vn 1 0 -1.1972977063123835E-06
vn 1 0 -1.1972977063123835E-06
vn 1 0 -1.1972977063123835E-06
vn 1 0 -1.1972977063123835E-06
vn 1 0 -1.1972977063123835E-06
vn 1 0 -1.1972977063123835E-06
vn -1.1972888387390412E-06 0 -1
vn -1.1972888387390412E-06 0 -1
vn -1.1972888387390412E-06 0 -1
vn -1.1972888387390412E-06 0 -1
vn -1.1972888387390412E-06 0 -1
vn -1.1972888387390412E-06 0 -1
vn -1.1972888387390412E-06 0 -1
vn -1 0 1.1972930451520369E-06
vn -1 0 1.1972930451520369E-06
vn -1 0 1.1972930451520369E-06
vn -1 0 1.1972930451520369E-06
vn -1 0 1.1972930451520369E-06
vn -1 0 1.1972930451520369E-06
vn -1 0 1.1972930451520369E-06
vn -1 0 1.1972930451520369E-06
vn 1.1972867923759622E-06 0 1
vn 1.1972867923759622E-06 0 1
vn 1.1972867923759622E-06 0 1
vn 1.1972867923759622E-06 0 1
vn 1.1972867923759622E-06 0 1
vn 1.1972867923759622E-06 0 1
vn 1.1972867923759622E-06 0 1
f 1/1/1 4/4/4 2/2/2
f 10/10/10 4/4/4 6/6/6
f 1/1/1 3/3/3 4/4/4
f 10/10/10 2/2/2 4/4/4
f 5/5/5 9/9/9 10/10/10
f 8/8/8 5/5/5 7/7/7
f 9/9/9 5/5/5 8/8/8
f 10/10/10 6/6/6 5/5/5
f 11/11/11 12/12/12 14/14/14
f 20/20/20 16/16/16 14/14/14
f 11/11/11 14/14/14 13/13/13
f 20/20/20 14/14/14 12/12/12
f 15/15/15 20/20/20 19/19/19
f 18/18/18 17/17/17 15/15/15
f 19/19/19 18/18/18 15/15/15
f 20/20/20 15/15/15 16/16/16
f 28/28/28 21/21/21 23/23/23 25/25/25
f 22/22/22 27/27/27 26/26/26 24/24/24
f 27/27/27 28/28/28 25/25/25 26/26/26
f 34/34/34 29/29/29 31/31/31 35/35/35
f 35/35/35 33/33/33 34/34/34
f 35/35/35 32/32/32 30/30/30 33/33/33
f 42/42/42 36/36/36 41/41/41
f 42/42/42 40/40/40 37/37/37
f 43/43/43 42/42/42 41/41/41
f 42/42/42 43/43/43 40/40/40
f 43/43/43 39/39/39 40/40/40
f 38/38/38 43/43/43 41/41/41
f 48/48/48 44/44/44 46/46/46 49/49/49
f 45/45/45 48/48/48 50/50/50 47/47/47
f 48/48/48 49/49/49 50/50/50
f 56/56/56 51/51/51 53/53/53 57/57/57
f 52/52/52 55/55/55 58/58/58 54/54/54
f 55/55/55 56/56/56 57/57/57 58/58/58
f 64/64/64 59/59/59 61/61/61 65/65/65
f 65/65/65 63/63/63 64/64/64
f 65/65/65 62/62/62 60/60/60 63/63/63
f 72/72/72 66/66/66 71/71/71
f 72/72/72 70/70/70 67/67/67
f 73/73/73 72/72/72 71/71/71
f 72/72/72 73/73/73 70/70/70
f 73/73/73 69/69/69 70/70/70
f 68/68/68 73/73/73 71/71/71
f 80/80/80 74/74/74 76/76/76 78/78/78
f 75/75/75 80/80/80 79/79/79 77/77/77
f 80/80/80 78/78/78 79/79/79
